<svg width="162" height="47" viewBox="0 0 162 47" fill="none" xmlns="http://www.w3.org/2000/svg">
<mask id="mask0_1402_634" style="mask-type:alpha" maskUnits="userSpaceOnUse" x="41" y="7" width="51" height="30">
<rect x="41.5664" y="7" width="49.825" height="29.3611" fill="#D9D9D9"/>
</mask>
<g mask="url(#mask0_1402_634)">
<path d="M41.5664 33.3161V9.26379H58.1709V13.4565H46.8686V19.1877H57.0689V23.3804H46.8686V33.3161H41.5664Z" fill="white"/>
<path d="M61.6394 33.3161V15.2769H66.8558V33.3161H61.6394ZM64.2599 12.9515C63.4843 12.9515 62.819 12.7049 62.2639 12.2116C61.7169 11.7105 61.4435 11.1116 61.4435 10.4147C61.4435 9.72573 61.7169 9.1346 62.2639 8.64135C62.819 8.14025 63.4843 7.88971 64.2599 7.88971C65.0354 7.88971 65.6966 8.14025 66.2436 8.64135C66.7987 9.1346 67.0763 9.72573 67.0763 10.4147C67.0763 11.1116 66.7987 11.7105 66.2436 12.2116C65.6966 12.7049 65.0354 12.9515 64.2599 12.9515Z" fill="white"/>
<path d="M76.251 22.8872V33.3161H71.0345V15.2769H76.0061V18.4596H76.2265C76.6428 17.4104 77.3408 16.5805 78.3204 15.9698C79.3001 15.3513 80.4878 15.042 81.8838 15.042C83.1899 15.042 84.3288 15.316 85.3002 15.8641C86.2717 16.4122 87.0268 17.1951 87.5656 18.2129C88.1044 19.223 88.3738 20.4287 88.3738 21.8302V33.3161H83.1573V22.7228C83.1655 21.6188 82.8716 20.7575 82.2756 20.139C81.6797 19.5126 80.8593 19.1995 79.8143 19.1995C79.1123 19.1995 78.4919 19.3443 77.9531 19.634C77.4224 19.9237 77.0061 20.3465 76.7041 20.9024C76.4102 21.4505 76.2591 22.112 76.251 22.8872Z" fill="white"/>
<path d="M93.1482 33.3161L93.1463 15.2769H96.1831L96.0261 29.0882H96.222L104.461 15.2769H107.547L110.88 29.0412H110.893L115.775 15.2769H118.812L111.713 33.3161H108.872L105.392 19.4578H105.098L96.1533 33.3161H93.1482Z" fill="white"/>
<path d="M116.405 33.3161L122.633 15.2769H125.523L119.294 33.3161H116.405ZM124.959 12.2234C124.396 12.2234 123.91 12.0394 123.502 11.6714C123.102 11.3034 122.902 10.861 122.902 10.3443C122.902 9.82752 123.102 9.38515 123.502 9.01716C123.91 8.64917 124.396 8.46518 124.959 8.46518C125.523 8.46518 126.004 8.64917 126.404 9.01716C126.813 9.38515 127.017 9.82752 127.017 10.3443C127.017 10.861 126.813 11.3034 126.404 11.6714C126.004 12.0394 125.523 12.2234 124.959 12.2234Z" fill="white"/>
<path d="M141.023 19.3169L138.28 20.0216C138.182 19.5988 138.011 19.1916 137.766 18.8002C137.529 18.4009 137.162 18.0759 136.664 17.8254C136.174 17.567 135.504 17.4378 134.655 17.4378C133.504 17.4378 132.504 17.6923 131.655 18.2012C130.806 18.7023 130.321 19.3404 130.198 20.1155C130.076 20.7967 130.239 21.3408 130.688 21.748C131.137 22.1551 131.888 22.4879 132.941 22.7462L135.635 23.4039C137.251 23.8032 138.402 24.4022 139.088 25.2008C139.782 25.9916 140.019 27.0212 139.798 28.2895C139.619 29.323 139.149 30.2469 138.39 31.0612C137.631 31.8755 136.659 32.5175 135.476 32.9873C134.292 33.457 132.974 33.6919 131.521 33.6919C129.586 33.6919 128.059 33.2926 126.941 32.494C125.822 31.6876 125.523 30.427 125.523 30.427L127.673 28.7984C128.114 29.6881 128.476 30.0277 129.12 30.521C129.774 31.0064 130.688 31.2491 131.863 31.2491C133.21 31.2491 134.333 30.9751 135.231 30.427C136.129 29.8711 136.639 29.2056 136.762 28.4305C136.884 27.7963 136.753 27.2678 136.37 26.845C135.994 26.4222 135.341 26.1051 134.41 25.8937L131.423 25.1891C129.757 24.7897 128.59 24.179 127.92 23.3569C127.259 22.5348 127.039 21.5013 127.259 20.2564C127.439 19.2386 127.896 18.3382 128.631 17.5553C129.374 16.7723 130.304 16.1577 131.423 15.7114C132.549 15.2651 133.774 15.042 135.096 15.042C136.957 15.042 138.349 15.4335 139.272 16.2164C140.194 16.9915 140.778 18.025 141.023 19.3169Z" fill="white"/>
<path d="M151.104 33.6919C149.3 33.6919 147.81 33.3083 146.634 32.541C145.459 31.7659 144.638 30.6854 144.173 29.2996C143.708 27.9059 143.634 26.2852 143.953 24.4374C144.271 22.5896 144.904 20.9611 145.851 19.5518C146.798 18.1346 147.977 17.0307 149.389 16.2399C150.802 15.4413 152.353 15.042 154.043 15.042C155.022 15.042 155.965 15.1986 156.871 15.5118C157.777 15.8249 158.561 16.3339 159.222 17.0385C159.884 17.7353 160.345 18.6592 160.606 19.8102C160.867 20.9611 160.851 22.3783 160.557 24.0616L160.361 25.236H145.863L146.255 22.8402H157.814C158.002 21.8224 157.953 20.9141 157.667 20.1155C157.39 19.3169 156.904 18.6866 156.21 18.2247C155.524 17.7627 154.655 17.5318 153.602 17.5318C152.516 17.5318 151.504 17.8136 150.565 18.3774C149.626 18.9333 148.842 19.6379 148.214 20.4913C147.585 21.3369 147.193 22.1982 147.038 23.0751L146.695 25.1421C146.451 26.6375 146.487 27.8276 146.806 28.7123C147.132 29.5971 147.7 30.2352 148.508 30.6267C149.316 31.0103 150.328 31.2021 151.545 31.2021C152.32 31.2021 153.034 31.1003 153.687 30.8968C154.341 30.6854 154.924 30.3722 155.439 29.9572C155.953 29.5344 156.386 29.0099 156.737 28.3835L159.381 29.1351C158.933 30.0434 158.3 30.842 157.483 31.531C156.675 32.2121 155.728 32.7445 154.643 33.1282C153.565 33.504 152.385 33.6919 151.104 33.6919Z" fill="white"/>
</g>
<mask id="mask1_1402_634" style="mask-type:alpha" maskUnits="userSpaceOnUse" x="91" y="7" width="71" height="30">
<rect x="91.3906" y="7" width="70.2888" height="29.3611" fill="#A180FC"/>
</mask>
<g mask="url(#mask1_1402_634)">
<path d="M41.5664 33.3161V9.26379H58.1709V13.4565H46.8686V19.1877H57.0689V23.3804H46.8686V33.3161H41.5664Z" fill="white"/>
<path d="M61.6394 33.3161V15.2769H66.8558V33.3161H61.6394ZM64.2599 12.9515C63.4843 12.9515 62.819 12.7049 62.2639 12.2116C61.7169 11.7105 61.4435 11.1116 61.4435 10.4147C61.4435 9.72573 61.7169 9.1346 62.2639 8.64135C62.819 8.14025 63.4843 7.88971 64.2599 7.88971C65.0354 7.88971 65.6966 8.14025 66.2436 8.64135C66.7987 9.1346 67.0763 9.72573 67.0763 10.4147C67.0763 11.1116 66.7987 11.7105 66.2436 12.2116C65.6966 12.7049 65.0354 12.9515 64.2599 12.9515Z" fill="white"/>
<path d="M76.251 22.8872V33.3161H71.0345V15.2769H76.0061V18.4596H76.2265C76.6428 17.4104 77.3408 16.5805 78.3204 15.9698C79.3001 15.3513 80.4878 15.042 81.8838 15.042C83.1899 15.042 84.3288 15.316 85.3002 15.8641C86.2717 16.4122 87.0268 17.1951 87.5656 18.2129C88.1044 19.223 88.3738 20.4287 88.3738 21.8302V33.3161H83.1573V22.7228C83.1655 21.6188 82.8716 20.7575 82.2756 20.139C81.6797 19.5126 80.8593 19.1995 79.8143 19.1995C79.1123 19.1995 78.4919 19.3443 77.9531 19.634C77.4224 19.9237 77.0061 20.3465 76.7041 20.9024C76.4102 21.4505 76.2591 22.112 76.251 22.8872Z" fill="white"/>
<path d="M93.1482 33.3161L93.1463 15.2769H96.1831L96.0261 29.0882H96.222L104.461 15.2769H107.547L110.88 29.0412H110.893L115.775 15.2769H118.812L111.713 33.3161H108.872L105.392 19.4578H105.098L96.1533 33.3161H93.1482Z" fill="white"/>
<path d="M116.405 33.3161L122.633 15.2769H125.523L119.294 33.3161H116.405ZM124.959 12.2234C124.396 12.2234 123.91 12.0394 123.502 11.6714C123.102 11.3034 122.902 10.861 122.902 10.3443C122.902 9.82752 123.102 9.38515 123.502 9.01716C123.91 8.64917 124.396 8.46518 124.959 8.46518C125.523 8.46518 126.004 8.64917 126.404 9.01716C126.813 9.38515 127.017 9.82752 127.017 10.3443C127.017 10.861 126.813 11.3034 126.404 11.6714C126.004 12.0394 125.523 12.2234 124.959 12.2234Z" fill="white"/>
<path d="M141.023 19.3169L138.28 20.0216C138.182 19.5988 138.011 19.1916 137.766 18.8002C137.529 18.4009 137.162 18.0759 136.664 17.8254C136.174 17.567 135.504 17.4378 134.655 17.4378C133.504 17.4378 132.504 17.6923 131.655 18.2012C130.806 18.7023 130.321 19.3404 130.198 20.1155C130.076 20.7967 130.239 21.3408 130.688 21.748C131.137 22.1551 131.888 22.4879 132.941 22.7462L135.635 23.4039C137.251 23.8032 138.402 24.4022 139.088 25.2008C139.782 25.9916 140.019 27.0212 139.798 28.2895C139.619 29.323 139.149 30.2469 138.39 31.0612C137.631 31.8755 136.659 32.5175 135.476 32.9873C134.292 33.457 132.974 33.6919 131.521 33.6919C129.586 33.6919 128.059 33.2926 126.941 32.494C125.822 31.6876 125.523 30.427 125.523 30.427L127.673 28.7984C128.114 29.6881 128.476 30.0277 129.12 30.521C129.774 31.0064 130.688 31.2491 131.863 31.2491C133.21 31.2491 134.333 30.9751 135.231 30.427C136.129 29.8711 136.639 29.2056 136.762 28.4305C136.884 27.7963 136.753 27.2678 136.37 26.845C135.994 26.4222 135.341 26.1051 134.41 25.8937L131.423 25.1891C129.757 24.7897 128.59 24.179 127.92 23.3569C127.259 22.5348 127.039 21.5013 127.259 20.2564C127.439 19.2386 127.896 18.3382 128.631 17.5553C129.374 16.7723 130.304 16.1577 131.423 15.7114C132.549 15.2651 133.774 15.042 135.096 15.042C136.957 15.042 138.349 15.4335 139.272 16.2164C140.194 16.9915 140.778 18.025 141.023 19.3169Z" fill="white"/>
<path d="M151.104 33.6919C149.3 33.6919 147.81 33.3083 146.634 32.541C145.459 31.7659 144.638 30.6854 144.173 29.2996C143.708 27.9059 143.634 26.2852 143.953 24.4374C144.271 22.5896 144.904 20.9611 145.851 19.5518C146.798 18.1346 147.977 17.0307 149.389 16.2399C150.802 15.4413 152.353 15.042 154.043 15.042C155.022 15.042 155.965 15.1986 156.871 15.5118C157.777 15.8249 158.561 16.3339 159.222 17.0385C159.884 17.7353 160.345 18.6592 160.606 19.8102C160.867 20.9611 160.851 22.3783 160.557 24.0616L160.361 25.236H145.863L146.255 22.8402H157.814C158.002 21.8224 157.953 20.9141 157.667 20.1155C157.39 19.3169 156.904 18.6866 156.21 18.2247C155.524 17.7627 154.655 17.5318 153.602 17.5318C152.516 17.5318 151.504 17.8136 150.565 18.3774C149.626 18.9333 148.842 19.6379 148.214 20.4913C147.585 21.3369 147.193 22.1982 147.038 23.0751L146.695 25.1421C146.451 26.6375 146.487 27.8276 146.806 28.7123C147.132 29.5971 147.7 30.2352 148.508 30.6267C149.316 31.0103 150.328 31.2021 151.545 31.2021C152.32 31.2021 153.034 31.1003 153.687 30.8968C154.341 30.6854 154.924 30.3722 155.439 29.9572C155.953 29.5344 156.386 29.0099 156.737 28.3835L159.381 29.1351C158.933 30.0434 158.3 30.842 157.483 31.531C156.675 32.2121 155.728 32.7445 154.643 33.1282C153.565 33.504 152.385 33.6919 151.104 33.6919Z" fill="white"/>
</g>
<path opacity="0.3" fill-rule="evenodd" clip-rule="evenodd" d="M31.96 4.69998C23.7281 11.271 2.09314 14.2135 0 22.373V35.2442C0 38.7282 1.14331 41.6166 4.29182 44.18C0.281431 31.0922 30.8695 33.1321 31.96 21.9939V4.69998Z" fill="url(#paint0_linear_1402_634)"/>
<path opacity="0.5" fill-rule="evenodd" clip-rule="evenodd" d="M23.7016 8.21617L23.6612 -3.05176e-05C13.3448 7.22278 0.908493 8.50591 0 22.0202V36.7763C0 38.7631 0.32302 40.5843 1.09019 42.2606C0.928682 26.2215 23.8227 32.6164 23.7419 17.4258L23.7016 8.21617Z" fill="url(#paint1_linear_1402_634)"/>
<path fill-rule="evenodd" clip-rule="evenodd" d="M0.262454 39.653C0.262454 39.6944 0.282642 39.7358 0.282642 39.7979L0.262454 39.653ZM0.242265 39.4667C0.242265 39.5081 0.262454 39.5702 0.262454 39.6116L0.242265 39.4667ZM0.141321 38.9493C0.141321 39.0114 0.16151 39.0528 0.16151 39.1149L0.141321 38.9493ZM0.0807549 38.4113C0.0807549 38.4733 0.100944 38.5147 0.100944 38.5768L0.0807549 38.4113ZM0.0201887 37.7076C0.0201887 37.7697 0.0201887 37.8111 0.0201887 37.8732V37.7076ZM0.0201887 37.5006C0.0201887 37.5627 0.0201887 37.6041 0.0201887 37.6662V37.5006ZM0 37.3351C0 37.3972 0 37.4386 0 37.5006V37.3351ZM0 37.1488C0 37.2109 0 37.2523 0 37.3144V37.1488ZM0 22.0202V36.7763C0 36.8384 0 36.9005 0 36.9626C0 37.0246 0 37.066 0 37.1281V37.1488V37.1695C0 37.2316 0 37.273 0 37.3351V37.3558C0 37.4179 0 37.4593 0 37.5213C0 37.5834 0 37.6248 0 37.6869V37.7076V37.8732C0 37.9973 0.0201887 38.1008 0.0201887 38.225V38.2457L0.0403775 38.3906C0.0403775 38.4526 0.0605662 38.494 0.0605662 38.5561V38.5768V38.5975L0.0807549 38.7424V38.7631V38.7838C0.0807549 38.8459 0.100944 38.8873 0.100944 38.9493C0.100944 39.0114 0.121132 39.0528 0.121132 39.1149V39.1356C0.121132 39.1977 0.141321 39.2391 0.141321 39.3012V39.3219C0.141321 39.384 0.16151 39.4253 0.16151 39.4874V39.5081C0.16151 39.5495 0.181699 39.6116 0.181699 39.653V39.6737V39.6944C0.181699 39.7358 0.201887 39.7772 0.201887 39.8393V39.86L0.242265 40.0048V40.0255V40.0462C0.262454 40.0876 0.262454 40.1497 0.282642 40.1911V40.2118C0.302831 40.2739 0.302831 40.3153 0.32302 40.3774V40.398C0.343208 40.4601 0.343208 40.5015 0.363397 40.5636C0.383586 40.605 0.383586 40.6671 0.403775 40.7085V40.7292C0.423963 40.7706 0.423963 40.8327 0.444152 40.8741V40.8947C0.464341 40.9361 0.464341 40.9982 0.48453 41.0396V41.0603C0.504718 41.1017 0.524907 41.1638 0.524907 41.2052C0.545096 41.2466 0.565285 41.3087 0.585473 41.3501V41.3707C0.605662 41.4121 0.625851 41.4742 0.646039 41.5156V41.5363C0.666228 41.5777 0.686417 41.6398 0.706606 41.6812L0.726794 41.7226C0.746983 41.764 0.767172 41.8054 0.787361 41.8467L0.807549 41.8674L0.868116 41.9916L0.888304 42.033L0.94887 42.1572L0.969059 42.1986L1.00944 42.3021C0.928682 26.2215 23.8227 32.6165 23.7419 17.4258L23.7016 8.21619C13.3044 12.1691 1.6151 15.7494 0 22.0202Z" fill="url(#paint2_linear_1402_634)"/>
<defs>
<linearGradient id="paint0_linear_1402_634" x1="-30.5" y1="44.1279" x2="32" y2="5.12788" gradientUnits="userSpaceOnUse">
<stop stop-color="#674AD9"/>
<stop offset="0.505208" stop-color="#FB5141"/>
<stop offset="1" stop-color="#089EFF"/>
</linearGradient>
<linearGradient id="paint1_linear_1402_634" x1="2.19332e-06" y1="21.4657" x2="47" y2="-18.3721" gradientUnits="userSpaceOnUse">
<stop stop-color="#674AD9"/>
<stop offset="0.505208" stop-color="#FB5141"/>
<stop offset="1" stop-color="#089EFF"/>
</linearGradient>
<linearGradient id="paint2_linear_1402_634" x1="-5.18832e-06" y1="25.5296" x2="48" y2="-6.87214" gradientUnits="userSpaceOnUse">
<stop stop-color="#674AD9"/>
<stop offset="0.505208" stop-color="#FB5141"/>
<stop offset="1" stop-color="#089EFF"/>
</linearGradient>
</defs>
</svg>
