<svg width="32" height="32" viewBox="0 0 32 32" fill="none" xmlns="http://www.w3.org/2000/svg">
<rect width="32" height="32" rx="2" fill="#0E0A24"/>
<path opacity="0.3" fill-rule="evenodd" clip-rule="evenodd" d="M27.1702 8.41583C27.1702 6.73982 25.1216 5.65833 23.6073 6.37649C16.9113 9.55196 6.57238 11.7355 5.07093 16.278C5.01833 16.4372 5 16.6047 5 16.7723V25.4484C5 25.6374 5.00485 25.8239 5.01484 26.008C5.12195 27.9817 8.65662 27.1516 10.305 26.0608C15.4672 22.6444 26.6254 21.8214 27.1702 16.2569V8.41583Z" fill="url(#paint0_linear_1337_290)"/>
<path opacity="0.5" fill-rule="evenodd" clip-rule="evenodd" d="M21.4415 6.69947L21.4322 4.81872C21.4243 3.2051 19.575 2.2213 18.1614 2.99949C11.8729 6.46136 5.53669 8.29158 5 16.2751V26.5112V26.5112C5 27.4089 6.13949 27.3211 6.53994 26.5178C9.72456 20.1288 21.5177 22.1712 21.4695 13.088L21.4415 6.69947Z" fill="url(#paint1_linear_1337_290)"/>
<path fill-rule="evenodd" clip-rule="evenodd" d="M5.18206 28.5067C5.18206 28.5355 5.19607 28.5642 5.19607 28.6072ZM5.16806 28.3775C5.16806 28.4063 5.18206 28.4493 5.18206 28.478ZM5.09803 28.0186C5.09803 28.0617 5.11204 28.0904 5.11204 28.1335ZM5.05602 27.6454C5.05602 27.6884 5.07002 27.7171 5.07002 27.7602ZM5.014 27.1573C5.014 27.2003 5.014 27.229 5.014 27.2721ZM5.014 27.0137C5.014 27.0568 5.014 27.0855 5.014 27.1285ZM5 26.8988C5 26.9419 5 26.9706 5 27.0137ZM5 26.7696C5 26.8127 5 26.8414 5 26.8845ZM5.07051 16.0319C5.01887 16.192 5 16.3603 5 16.5286V26.5112C5 26.5543 5 26.5974 5 26.6404C5 26.6835 5 26.7122 5 26.7553V26.7696V26.784C5 26.8271 5 26.8558 5 26.8988V26.9132C5 26.9563 5 26.985 5 27.028C5 27.0711 5 27.0998 5 27.1429V27.1573V27.2721C5 27.3582 5.014 27.43 5.014 27.5162V27.5305L5.02801 27.631C5.02801 27.6741 5.04201 27.7028 5.04201 27.7459V27.7602V27.7746L5.05602 27.8751V27.8894V27.9038C5.05602 27.9469 5.07002 27.9756 5.07002 28.0186C5.07002 28.0617 5.08403 28.0904 5.08403 28.1335V28.1478C5.08403 28.1909 5.09803 28.2196 5.09803 28.2627V28.277C5.09803 28.3201 5.11204 28.3488 5.11204 28.3919V28.4063C5.11204 28.435 5.12604 28.478 5.12604 28.5067V28.5211V28.5355C5.12604 28.5642 5.14005 28.5929 5.14005 28.636V28.636C5.14005 28.6455 5.14134 28.655 5.1439 28.6641L5.1642 28.737C5.16676 28.7462 5.16806 28.7556 5.16806 28.7652V28.7652V28.7652C5.16806 28.7746 5.17043 28.7839 5.17336 28.7928C5.18144 28.8176 5.18366 28.8484 5.1927 28.8722C5.19469 28.8774 5.19607 28.8829 5.19607 28.8885V28.8885C5.19607 28.8924 5.19669 28.8963 5.19783 28.9C5.2094 28.9377 5.21058 28.9648 5.22192 29.0024C5.2233 29.0069 5.22407 29.0116 5.22407 29.0164V29.0164C5.22407 29.0212 5.22485 29.0259 5.22623 29.0304C5.23812 29.0698 5.23884 29.0977 5.25208 29.1384C5.26506 29.165 5.26601 29.2039 5.27721 29.2324C5.27895 29.2367 5.28009 29.2414 5.28009 29.2461V29.2461C5.28009 29.2508 5.28124 29.2555 5.28297 29.2598C5.29328 29.286 5.29491 29.3211 5.30522 29.3472C5.30696 29.3516 5.3081 29.3562 5.3081 29.361V29.361C5.3081 29.3657 5.30925 29.3703 5.31098 29.3747C5.32129 29.4009 5.32292 29.4359 5.33323 29.4621C5.33497 29.4664 5.33611 29.4711 5.33611 29.4758V29.4758C5.33611 29.4805 5.33721 29.4852 5.33916 29.4895C5.34495 29.5022 5.35056 29.517 5.35498 29.5319C5.36483 29.5651 5.37185 29.5997 5.38442 29.6319C5.39064 29.6478 5.39686 29.6639 5.40308 29.6775C5.40504 29.6818 5.40613 29.6864 5.40613 29.6911V29.6911C5.40613 29.6959 5.40723 29.7005 5.40919 29.7048C5.42116 29.731 5.43312 29.7661 5.44509 29.7923C5.44705 29.7966 5.44815 29.8013 5.44815 29.806V29.806C5.44815 29.8107 5.44924 29.8154 5.45121 29.8197C5.46419 29.8481 5.47718 29.887 5.49016 29.9137L5.50417 29.9424C5.51671 29.9681 5.52925 29.9938 5.54178 30.0195C5.5447 30.0255 5.54855 30.0309 5.55318 30.0357V30.0357C5.55782 30.0405 5.56167 30.0459 5.56458 30.0519L5.6022 30.129L5.6162 30.1577L5.65822 30.2439L5.67222 30.2726V30.2726C5.67799 30.2873 5.70007 30.2801 5.7001 30.2642C5.72046 19.2107 21.5253 23.6003 21.4695 13.088L21.4541 9.58592C21.448 8.18939 20.047 7.2243 18.7375 7.70964C12.4665 10.0339 6.25399 12.3615 5.07051 16.0319Z" fill="url(#paint2_linear_1337_290)"/>
<defs>
<linearGradient id="paint0_linear_1337_290" x1="-16.1574" y1="31.6109" x2="27.198" y2="4.55714" gradientUnits="userSpaceOnUse">
<stop stop-color="#674AD9"/>
<stop offset="0.505208" stop-color="#FB5141"/>
<stop offset="1" stop-color="#089EFF"/>
</linearGradient>
<linearGradient id="paint1_linear_1337_290" x1="5" y1="15.8905" x2="37.6033" y2="-11.7445" gradientUnits="userSpaceOnUse">
<stop stop-color="#674AD9"/>
<stop offset="0.505208" stop-color="#FB5141"/>
<stop offset="1" stop-color="#089EFF"/>
</linearGradient>
<linearGradient id="paint2_linear_1337_290" x1="5" y1="18.7096" x2="38.2969" y2="-3.7671" gradientUnits="userSpaceOnUse">
<stop stop-color="#674AD9"/>
<stop offset="0.505208" stop-color="#FB5141"/>
<stop offset="1" stop-color="#089EFF"/>
</linearGradient>
</defs>
</svg>
